<?xml version="1.0" encoding="UTF-8" standalone="no"?>
<!-- Created with Inkscape (http://www.inkscape.org/) -->

<svg
   xmlns:dc="http://purl.org/dc/elements/1.1/"
   xmlns:cc="http://creativecommons.org/ns#"
   xmlns:rdf="http://www.w3.org/1999/02/22-rdf-syntax-ns#"
   xmlns:svg="http://www.w3.org/2000/svg"
   xmlns="http://www.w3.org/2000/svg"
   xmlns:sodipodi="http://sodipodi.sourceforge.net/DTD/sodipodi-0.dtd"
   xmlns:inkscape="http://www.inkscape.org/namespaces/inkscape"
   width="100"
   height="70"
   id="svg4175"
   version="1.1"
   inkscape:version="0.48+devel r"
   viewBox="0 0 100 70.000007"
   sodipodi:docname="typer_logo.svg">
  <defs
     id="defs4177" />
  <sodipodi:namedview
     id="base"
     pagecolor="#3d3d3d"
     bordercolor="#666666"
     borderopacity="1.0"
     inkscape:pageopacity="0"
     inkscape:pageshadow="2"
     inkscape:zoom="3.959798"
     inkscape:cx="-9.338877"
     inkscape:cy="33.435211"
     inkscape:document-units="px"
     inkscape:current-layer="layer1"
     showgrid="false"
     fit-margin-top="0"
     fit-margin-left="0"
     fit-margin-right="0"
     fit-margin-bottom="0"
     inkscape:window-width="1366"
     inkscape:window-height="718"
     inkscape:window-x="-2"
     inkscape:window-y="23"
     inkscape:window-maximized="1"
     inkscape:showpageshadow="false"
     showguides="true">
    <inkscape:grid
       type="xygrid"
       id="grid4109"
       originx="-29.999971px"
       originy="27.999995px" />
  </sodipodi:namedview>
  <metadata
     id="metadata4180">
    <rdf:RDF>
      <cc:Work
         rdf:about="">
        <dc:format>image/svg+xml</dc:format>
        <dc:type
           rdf:resource="http://purl.org/dc/dcmitype/StillImage" />
        <dc:title />
      </cc:Work>
    </rdf:RDF>
  </metadata>
  <g
     inkscape:label="Capa 1"
     inkscape:groupmode="layer"
     id="layer1"
     transform="translate(-395.11194,-998.74097)">
    <g
       id="g4113"
       transform="matrix(0.8344908,0,0,0.8344908,58.917514,147.25103)">
      <path
         sodipodi:nodetypes="ccccccccccccccsccccccccsccccccccccccccsccccccccccccccccccccccsccsccccssccccsccssccc"
         inkscape:connector-curvature="0"
         id="path5339-2"
         d="m 415.19227,1048.9426 -7.15411,1.4095 -1.35866,6.5499 -2.41861,0 -1.26005,3.0735 3.02244,0 -2.67111,13.0977 c -2.23923,10.9962 6.64947,11.4318 12.43222,5.763 1.5432,5.3975 8.30365,4.7363 12.68802,0.2321 l -0.55452,2.9217 c -4.0807,1.2589 -8.06055,2.5214 -8.46347,7.3573 -0.05,0.8066 0.0498,1.6102 0.30201,2.2147 0.20136,0.6044 0.60443,1.1585 1.00734,1.6107 0.55426,0.5045 1.0562,0.9108 1.6609,1.163 0.70516,0.2523 1.36283,0.3513 2.01776,0.3513 0.75561,0 1.56097,-0.092 2.46792,-0.302 0.80605,-0.2022 1.66185,-0.6571 2.46791,-1.2616 0.7556,-0.6044 1.61153,-1.4092 2.31691,-2.568 1.05784,-1.5613 2.16706,-5.0879 2.97311,-8.4648 1.66234,-0.5523 3.22409,-1.4087 4.73531,-2.3154 l -3.07174,14.9118 7.10172,0 2.82212,-14.4599 c 1.10829,1.3612 4.17971,2.219 6.24518,2.219 1.96479,0 3.57943,-0.6575 5.0404,-1.6642 1.20898,-0.9568 2.26569,-2.2165 3.07174,-3.6776 1.46098,-2.7223 2.2676,-5.9935 2.2676,-9.2681 0.05,-7.0537 -4.5358,-14.8126 -12.24362,-9.27 l 0.30469,-1.6642 -7.05509,0 -3.87897,19.3968 c -1.3603,0.8567 -3.02171,1.8636 -4.63381,2.5703 0.30224,-1.159 0.60367,-2.2192 4.48281,-21.9671 l -6.95072,0 -3.57695,17.9853 c -2.41837,4.3336 -8.26436,7.5046 -7.2063,1.9643 1.15874,-5.3904 2.41973,-12.1413 3.93116,-19.9496 l -7.00291,0 -3.27513,16.3746 c -0.24515,1.2246 -0.32809,2.2985 -0.31065,3.2688 -2.68557,3.1598 -6.64853,4.6578 -5.76319,0.1541 l 3.37376,-16.724 3.17631,0 1.46038,-3.0735 -4.08217,0 z m 78.02588,10.9261 0.76075,-2.9667 -6.90134,0 -3.36226,16.6417 c -2.37803,3.8712 -6.40932,6.8156 -10.24889,5.0192 -2.16634,-1.0567 -3.07368,-3.8792 -3.12413,-6.2971 4.33254,0.1522 8.56554,-1.4089 10.83257,-5.5903 1.51143,-2.9724 1.46024,-6.7998 -1.10904,-8.8655 -2.87168,-2.418 -9.42238,-1.1597 -13.25116,4.7851 -4.6852,7.456 -4.53348,19.4952 4.98801,19.7975 4.45251,0.1204 7.93652,-0.9868 11.10849,-4.8651 l -0.92332,4.5631 7.1046,0 2.81924,-14.5606 c 2.49022,-4.0511 6.07167,-7.7881 10.00507,-5.3088 -9.7e-4,-0.057 -0.0166,-0.089 -0.0166,-0.1479 0,-2.0175 1.09728,-3.7234 2.6828,-4.6597 -3.56222,-1.3323 -9.35966,-0.2447 -11.36396,2.4551 z m -16.07325,-0.5404 c 0.37788,-0.019 0.70333,0.06 0.95534,0.2446 1.25941,1.0067 0.35289,10.5782 -7.60695,10.3282 0,-0.1523 0.0493,-0.3548 0.0493,-0.5547 0.55425,-2.8225 1.46224,-5.0908 2.52011,-6.702 1.3603,-2.1526 2.94865,-3.2312 4.08216,-3.3161 z m -23.93275,0.5486 c 3.50574,0.064 3.20195,7.1511 2.46504,11.0802 -0.50381,2.368 -1.2608,4.5866 -2.3691,5.9458 -1.61209,2.3679 -4.23274,3.4271 -6.55007,0.5547 l 3.37663,-16.3746 c 1.25637,-0.8611 2.26855,-1.2202 3.0775,-1.2061 z m -25.84899,24.1286 c -0.20136,1.0067 -0.3025,1.3627 -0.55452,2.4695 -0.45336,1.3611 -1.00781,2.3664 -1.56207,2.9709 -0.55403,0.6045 -1.10768,0.8567 -1.46036,0.8567 -0.50381,0 -0.95667,-0.1984 -1.30936,-0.5527 -0.35268,-0.4022 -0.45303,-0.7584 -0.45303,-1.1608 -0.15112,-2.1156 2.92119,-3.527 5.33934,-4.5836 z"
         style="font-size:33.88998413px;font-style:normal;font-variant:normal;font-weight:normal;font-stretch:normal;line-height:125%;letter-spacing:0px;word-spacing:0px;fill:#ecf0f1;fill-opacity:1;stroke:none;font-family:Blenda Script;-inkscape-font-specification:Blenda Script" />
      <g
         style="fill:#1abc9c;fill-opacity:1"
         inkscape:label="Capa 1"
         id="layer1-4"
         transform="translate(482.58291,17.57564)">
        <path
           style="fill:#ecf0f1;fill-opacity:1;stroke:none"
           d="M 86.537109 7.984375 C 83.041359 7.9845304 79.56965 9.0642348 77.099609 10.917969 C 74.629568 12.771703 73.193359 15.37671 73.193359 17.998047 C 73.193359 20.619384 74.629568 23.224391 77.099609 25.078125 C 79.492265 26.873783 82.82704 27.932681 86.210938 27.998047 L 86.210938 34.6875 C 99.924337 26.770102 99.896484 21.779625 99.896484 17.998047 C 99.896484 15.376417 98.455615 12.769759 95.982422 10.916016 C 93.509229 9.0622721 90.032859 7.9842196 86.537109 7.984375 z M 81.96875 14.193359 L 84.011719 14.193359 L 84.011719 15.648438 L 81.96875 15.648438 L 81.96875 14.193359 z M 88.171875 15.953125 C 88.804027 15.953125 89.257303 16.220083 89.53125 16.753906 C 89.812206 16.220083 90.310883 15.953125 91.027344 15.953125 C 91.427707 15.953125 91.752223 16.061411 91.998047 16.279297 C 92.27902 16.532064 92.417969 16.906672 92.417969 17.398438 L 92.417969 21.800781 L 90.373047 21.800781 L 90.373047 18.029297 C 90.373047 17.657031 90.24153 17.470703 89.974609 17.470703 C 89.700679 17.470703 89.5625 17.657031 89.5625 18.029297 L 89.5625 21.800781 L 87.519531 21.800781 L 87.519531 18.029297 C 87.519531 17.657031 87.386061 17.470703 87.119141 17.470703 C 86.845202 17.470703 86.708984 17.657031 86.708984 18.029297 L 86.708984 21.800781 L 84.664062 21.800781 L 84.664062 16.101562 L 86.644531 16.101562 L 86.644531 16.753906 L 86.666016 16.753906 C 86.961025 16.220083 87.462458 15.953125 88.171875 15.953125 z M 81.96875 16.101562 L 84.011719 16.101562 L 84.011719 21.800781 L 82.878906 21.800781 C 83.208572 21.515469 83.421875 21.108947 83.421875 20.669922 C 83.421875 19.83927 82.780518 19.192025 81.96875 19.121094 L 81.96875 16.101562 z M 81.830078 19.507812 C 82.481941 19.507812 83.011719 20.014278 83.011719 20.666016 C 83.011719 21.269686 82.481941 21.800781 81.830078 21.800781 C 81.202399 21.800781 80.669922 21.269686 80.669922 20.666016 C 80.669922 20.014278 81.202399 19.507812 81.830078 19.507812 z "
           transform="matrix(1.1983357,0,0,1.1983357,-79.70918,1002.795)"
           id="path4084" />
      </g>
    </g>
  </g>
</svg>
